<svg width="32" height="32" fill="none" xmlns="http://www.w3.org/2000/svg"><path d="M15.5 1.3c2 0 3.8.7 5.2 2.1a7.3 7.3 0 0 1-.7 11h-1.2v-1.6c.7-.5 1.2-1.1 1.5-1.9.4-.7.5-1.5.5-2.3a5 5 0 0 0-1.5-3.7c-1-1-2.3-1.6-3.8-1.6s-2.7.5-3.8 1.6a5 5 0 0 0-1.5 3.7 5.4 5.4 0 0 0 2 4.2v2.4a7.3 7.3 0 0 1-4-6.6 7 7 0 0 1 2.1-5.2 7.1 7.1 0 0 1 5.2-2Zm-1.3 28a2.7 2.7 0 0 1-1.9-.8l-6.9-6.8 1.9-2 1-.7c.4-.1.8-.2 1.3 0l2.6.5V8.7c0-1 .3-1.8 1-2.4.6-.6 1.4-1 2.3-1 1 0 1.7.4 2.4 1 .6.6 1 1.4 1 2.4v5.7H20l.3.2 5 2.4c.5.2.9.6 1.1 1.2.3.5.3 1 .2 1.7L25.4 27c0 .7-.4 1.2-.9 1.6-.5.4-1 .6-1.7.6h-8.6Zm-.2-2h9.3l1.5-8.3-6.1-3h-1.9V8.7c0-.4 0-.8-.3-1-.3-.2-.6-.4-1-.4s-.7.2-1 .4c-.2.2-.3.6-.3 1V22L9 20.9l-.7.7 5.7 5.7Zm9.3 0H14h9.3Z" fill="#7EB101"/></svg>