<svg aria-hidden="true" style="position:absolute;width:0;height:0;overflow:hidden" xmlns="http://www.w3.org/2000/svg"><defs><symbol id="logo" viewBox="0 0 71 52"><path d="M26.6 10.5a4.4 4.4 0 0 1 8 0l2 4a4.4 4.4 0 0 0 3.2 2.4l4.5.7c3.6.6 5 5 2.5 7.6l-3.3 3.2c-1 1-1.4 2.4-1.2 3.8l.7 4.5a4.4 4.4 0 0 1-6.4 4.6l-4-2a4.4 4.4 0 0 0-4 0l-4 2c-3.3 1.7-7-1-6.4-4.6l.7-4.5c.2-1.4-.3-2.8-1.3-3.8l-3.2-3.2a4.4 4.4 0 0 1 2.5-7.6l4.4-.7a4.4 4.4 0 0 0 3.3-2.3l2-4Z" fill="#FFE550"/><path d="M5.6 33a53.4 53.4 0 0 1-.1 4.9v.3l-.2.4c-.2 0-.4-.1-.7-.4l-.6-.7v-4.6a32.3 32.3 0 0 0-.2-6c0-.3.4-.5.9-.7.6-.3 1.4-.5 2.5-.8 1-.3 2-.4 2.6-.4.7 0 1 0 1 .2s0 .3-.2.4a9.6 9.6 0 0 1-1 .5 44.6 44.6 0 0 0-4.3 1.6c.2.6.2 1.9.2 4l2.3-.7 1.5-.4h.7c.1.4-.3.9-1.3 1.3-.9.5-2 .9-3.1 1.2ZM16.8 30c0-.4-.2-.8-.4-1-.2-.4-.5-.6-.8-.7-.7.4-1.2 1.2-1.6 2.3a6 6 0 0 0-.1 3c.2 1 .5 1.4 1 1.6.8-.4 1.4-1.1 1.7-2.2.4-1.2.4-2.1.2-3ZM12.3 31c.2-1 .6-1.8 1-2.6a3 3 0 0 1 1.9-1.3c.7-.2 1.3 0 2 .5.5.4.9 1 1.1 2 .2.7.2 1.6 0 2.6s-.6 1.8-1.2 2.6c-.5.7-1.2 1.2-2 1.4-.6 0-1.1 0-1.7-.5-.5-.5-.8-1.1-1-2-.2-.8-.2-1.7 0-2.7Zm12.4-3c-.1-.5-.3-.8-.5-1.1l-.7-.7c-.8.4-1.3 1.2-1.6 2.4a6 6 0 0 0-.2 3c.2.9.5 1.4 1 1.5.8-.4 1.4-1 1.7-2.2.4-1.1.5-2.1.3-3Zm-4.5 1.2c.1-1 .5-1.9 1-2.6a3 3 0 0 1 1.8-1.4c.7-.1 1.3 0 2 .5.5.5 1 1.1 1.1 2 .2.8.2 1.7 0 2.7-.2 1-.6 1.8-1.1 2.5-.6.7-1.3 1.2-2 1.4-.7.1-1.2 0-1.7-.5-.6-.4-1-1-1.1-1.9-.2-.8-.2-1.7 0-2.7Zm12.6-11.4c.2 0 .5 0 .8.4.4.2.6.5.7.8l.1 2.7a102.1 102.1 0 0 1-.4 10c-.2 0-.4 0-.6-.2-.2-.2-.4-.3-.4-.5l-.1-.9c-.9 1.4-1.7 2.2-2.5 2.4-.6.2-1 0-1.6-.3-.5-.4-.8-.8-1-1.3v-2.7c.2-1 .5-2.1 1-3 .6-1 1.3-1.6 2.1-1.8.8-.2 1.5.1 2 1 0-2.6 0-4.6-.3-6-.1-.3 0-.5.2-.6Zm.1 9c-.1-.7-.4-1.2-.7-1.6-.3-.3-.6-.5-.9-.4-.5 0-1 .5-1.3 1.2a7.6 7.6 0 0 0-.7 4.6c0 .2.2.3.3.4.2.1.4.2.6.1.5-.1 1-.6 1.6-1.4.6-.8 1-1.7 1.1-2.7V27Zm11-1.1a3 3 0 0 1-.7 2.7 5 5 0 0 1-2.7 1.6c-1 .3-2 .2-2.9-.2-.8-.4-1.3-.9-1.5-1.4 0-.3 0-.5.2-.6l1.3.6 1 .4h1.2c.8-.2 1.4-.6 2-1.2.5-.5.7-1 .6-1.5 0-.3-.4-.7-1-1-.4-.5-1-.8-1.6-1.1L38 23 37 22v-1c0-.3.2-.6.3-.8.3-.6.9-1.2 1.7-1.8.9-.7 1.6-1 2.3-1.2.3-.1.6 0 .9.1.3.2.5.4.5.6 0 .1 0 .3-.3.4a25.7 25.7 0 0 1-2.2 1.2c-1.2.8-1.8 1.5-1.7 2 0 .2 1 .7 2.5 1.6.7.3 1.3.7 1.8 1.2.6.5 1 1 1 1.5Zm4 .8c0 .3.2.3.5.3.4-.1.9-.4 1.5-.8l1-.6c.1 0 .3 0 .3.3s-.2.8-.8 1.4c-.5.6-1.1 1-1.7 1-.5.2-1 .2-1.5 0-.4-.3-.7-.6-.7-.9l-.1-1.2a65 65 0 0 1 .2-4.4l-1 .5c-.2 0-.4 0-.6-.2-.2-.1-.4-.3-.4-.5s.6-.7 2-1.3c0-1 0-1.9-.2-2.6-.1-.3 0-.5.2-.6.2 0 .5 0 .8.2.3.2.6.4.6.7l.1 1.7 1.6-.4c.7-.2 1-.1 1.1.2 0 .2-.1.3-.5.6l-2.2 1a76.7 76.7 0 0 1-.2 5.6Zm7.7-9c.5-.1 1 0 1.6.4.6.5 1 .9 1 1.3.1.4 0 .9-.1 1.4.2.1.3.3.3.4l.2 1.7a63.2 63.2 0 0 0 .2 2.6c0 .3 0 .5-.2.5-.3 0-.5 0-.7-.4l-.6-1.3c-.7 1.5-1.5 2.4-2.3 2.6-.6.1-1.1 0-1.8-.3-.6-.4-1-.8-1-1.2-.2-.7-.2-1.6.1-2.8.3-1.1.7-2.2 1.3-3.2.6-1 1.3-1.5 2-1.7Zm1.5 2.8c-.2-1-.6-1.5-1-1.4-.4 0-.9.5-1.3 1.3-.5.8-.8 1.6-1 2.5-.3 1-.3 1.6-.2 2.1 0 .2.2.3.3.4h.7c.5 0 1-.6 1.5-1.4.5-1 .8-2 .8-3 0-.2 0-.4.2-.4Z" fill="#2C2C2C"/><path fill-rule="evenodd" clip-rule="evenodd" d="M53.6 32.5c-.5 0-.9.5-1 1a23.2 23.2 0 0 1-38 9.3c-.3-.3-.8-.5-1.3-.3-1 .2-1.4 1.5-.7 2.2a25.8 25.8 0 0 0 42.6-10.6c.4-1-.6-1.9-1.6-1.6ZM6.8 23c.5-.1 1-.6 1-1.2a23.2 23.2 0 0 1 41-10.2c.4.5 1 .7 1.5.6 1-.3 1.4-1.4.8-2.1a25.8 25.8 0 0 0-46 11.4c-.2 1 .7 1.7 1.7 1.5Z" fill="#BBF330"/><path d="M69.6 8.7c-6.1 11.7-8.8 4-17.5 8.5 1-13.6 10-5.3 17.5-8.5Z" fill="#BBF330" stroke="#BBF330" stroke-linejoin="round"/></symbol><symbol id="menu" viewBox="0 0 28 28"><path d="M2.3 7a1.2 1.2 0 0 1 1.2-1.2h21a1.2 1.2 0 0 1 0 2.4h-21A1.2 1.2 0 0 1 2.3 7Zm0 7A1.2 1.2 0 0 1 3.5 13h21a1.2 1.2 0 1 1 0 2.3h-21A1.2 1.2 0 0 1 2.3 14Zm1.2 6a1.2 1.2 0 0 0 0 2.2h21a1.2 1.2 0 1 0 0-2.3h-21Z" fill="#7EB101"/></symbol><symbol id="left" viewBox="0 0 17 30"><path d="m.5 15.9 13.9 13.3a1.2 1.2 0 0 0 1.7 0 1.1 1.1 0 0 0 0-1.7L3 15 16.1 2.5a1.2 1.2 0 0 0 0-1.7 1.3 1.3 0 0 0-1.7 0L.4 14.1a1.3 1.3 0 0 0 0 1.8Z"/></symbol><symbol id="right" viewBox="0 0 17 30"><path d="M16.5 14.1 2.6.8A1.3 1.3 0 0 0 1 .8a1.2 1.2 0 0 0 0 1.7L14 15 .9 27.5a1.1 1.1 0 0 0 0 1.7 1.3 1.3 0 0 0 1.7 0l14-13.3a1.3 1.3 0 0 0 0-1.8Z"/></symbol><symbol id="rocket" viewBox="0 0 32 32"><path d="m7.2 13.6 3.6 1.5a40.6 40.6 0 0 1 2.7-4.6l-2.6-.5-3.7 3.6Zm5.2 2.7 4.4 4.5a26.2 26.2 0 0 0 6.3-4.1c1.8-1.8 3-3.7 4-5.6.8-1.9 1.2-4 1.3-6.4-2.4.1-4.5.6-6.4 1.4a18.8 18.8 0 0 0-7.7 6.7c-.7 1-1.4 2.3-2 3.5Zm7.6-3.2c-.4-.4-.7-1-.7-1.6 0-.7.3-1.2.7-1.7.4-.4 1-.6 1.6-.6.7 0 1.3.2 1.7.6.4.5.7 1 .7 1.7 0 .6-.3 1.2-.7 1.6-.4.5-1 .7-1.7.7-.6 0-1.2-.2-1.6-.7ZM19.5 26l3.6-3.6-.5-2.7a28.6 28.6 0 0 1-4.6 2.8l1.5 3.5ZM30.4 2.8c.2 3-.2 5.7-1.2 8.2-1 2.5-2.5 4.9-4.7 7v.1l-.1.1.7 3.7v1a2 2 0 0 1-.6.8l-5.7 5.7-2.8-6.6-5.7-5.7-6.6-2.8 5.8-5.7.8-.5h1l3.6.7h.1v-.1c2.3-2.2 4.6-3.8 7.1-4.8s5.2-1.3 8.3-1.1ZM6 21.2A4 4 0 0 1 8.8 20c1.1 0 2 .4 2.9 1.1.7.8 1.1 1.8 1.1 2.9a4 4 0 0 1-1.2 2.8c-.5.6-1.4 1-2.7 1.5-1.2.3-3 .7-5.4 1a39 39 0 0 1 1-5.4c.4-1.3.9-2.2 1.5-2.7Zm1.4 1.4c-.3.3-.6.9-.9 1.6L6 26.9l2.7-.6c.7-.3 1.3-.6 1.6-.9.4-.3.6-.8.7-1.4 0-.6-.2-1-.6-1.5a2 2 0 0 0-3 .1Z" fill="#7EB101"/></symbol><symbol id="touch" viewBox="0 0 32 32"><path d="M15.5 1.3c2 0 3.8.7 5.2 2.1a7.3 7.3 0 0 1-.7 11h-1.2v-1.6c.7-.5 1.2-1.1 1.5-1.9.4-.7.5-1.5.5-2.3a5 5 0 0 0-1.5-3.7c-1-1-2.3-1.6-3.8-1.6s-2.7.5-3.8 1.6a5 5 0 0 0-1.5 3.7 5.4 5.4 0 0 0 2 4.2v2.4a7.3 7.3 0 0 1-4-6.6 7 7 0 0 1 2.1-5.2 7.1 7.1 0 0 1 5.2-2Zm-1.3 28a2.7 2.7 0 0 1-1.9-.8l-6.9-6.8 1.9-2 1-.7c.4-.1.8-.2 1.3 0l2.6.5V8.7c0-1 .3-1.8 1-2.4.6-.6 1.4-1 2.3-1 1 0 1.7.4 2.4 1 .6.6 1 1.4 1 2.4v5.7H20l.3.2 5 2.4c.5.2.9.6 1.1 1.2.3.5.3 1 .2 1.7L25.4 27c0 .7-.4 1.2-.9 1.6-.5.4-1 .6-1.7.6h-8.6Zm-.2-2h9.3l1.5-8.3-6.1-3h-1.9V8.7c0-.4 0-.8-.3-1-.3-.2-.6-.4-1-.4s-.7.2-1 .4c-.2.2-.3.6-.3 1V22L9 20.9l-.7.7 5.7 5.7Zm9.3 0H14h9.3Z" fill="#7EB101"/></symbol><symbol id="vector" viewBox="0 0 6 10"><path d="M5.1 5.1c.2.2.2.4 0 .6l-4 4c-.1.2-.4.2-.6 0l-.1-.2a.4.4 0 0 1 0-.5l3.5-3.6L.4 1.8a.4.4 0 0 1 0-.5L.5 1c.2-.2.5-.2.6 0l4 4Z"/></symbol><symbol id="star" viewBox="0 0 18 16"><path d="M7.8.5a.9.9 0 0 1 1.6 0l1.8 4.1c.1.3.4.5.7.5l4.5.4c.8 0 1.1 1 .5 1.4l-3.4 3c-.3.1-.4.5-.3.8l1 4.3c.2.7-.6 1.3-1.2.9l-4-2.3a.9.9 0 0 0-.8 0l-4 2.3c-.6.4-1.4-.2-1.2-1l1-4.2c.1-.3 0-.7-.2-.9L.3 7c-.6-.4-.3-1.4.5-1.4L5.3 5c.4 0 .6-.2.8-.5l1.7-4Z"/></symbol><symbol id="close" viewBox="0 0 11 11"><path d="M11 1.1 9.9 0 5.5 4.4 1.1 0 0 1.1l4.4 4.4L0 9.9 1.1 11l4.4-4.4L9.9 11 11 9.9 6.6 5.5 11 1.1Z"/></symbol><symbol id="person" viewBox="0 0 12 12"><path d="M6 6a3 3 0 1 0 0-6 3 3 0 0 0 0 6Zm0 1.5c-2 0-6 1-6 3v.8c0 .4.3.7.8.7h10.4c.5 0 .8-.3.8-.8v-.7c0-2-4-3-6-3Z"/></symbol><symbol id="phone" viewBox="0 0 14 14"><path d="M12 9.1 10.2 9c-.5 0-1 .1-1.2.4l-1.4 1.4C5.6 9.7 4 7.9 3 5.9l1.3-1.4c.3-.3.5-.7.4-1.1l-.2-1.9C4.4.8 3.7.3 3 .3H1.7C1 .3.2.9.3 1.8c.4 6.1 5.3 11 11.5 11.5.8 0 1.5-.7 1.5-1.5v-1.2c0-.8-.6-1.4-1.3-1.5Z"/></symbol><symbol id="email" viewBox="0 0 16 12"><path d="M14 0H2C1.2 0 .5.7.5 1.5v9c0 .8.7 1.5 1.5 1.5h12c.8 0 1.5-.7 1.5-1.5v-9C15.5.7 14.8 0 14 0Zm-.3 3.2L8.4 6.5c-.2.2-.6.2-.8 0L2.3 3.2a.6.6 0 1 1 .7-1l5 3 5-3a.6.6 0 1 1 .7 1Z"/></symbol><symbol id="check" viewBox="0 0 13 10"><path d="m2 4.8-.1-.1-1 .9v.1l3.5 3.4h.1l7.6-7.2v-.1l-1-.9-6.6 6.3L2 4.8Z"/></symbol><symbol id="frame" viewBox="0 0 12 12"><path d="M6 4.3v2.6M6 9.9A.4.4 0 1 0 6 9a.4.4 0 0 0 0 .9Z" stroke="#FF705D" stroke-width=".9" stroke-linecap="round" stroke-linejoin="round"/><path d="M6.8.9a.9.9 0 0 0-1.6 0L.5 10.3a.9.9 0 0 0 .8 1.3h9.4a.9.9 0 0 0 .8-1.3L6.8 1Z" fill="transparent" stroke="#FF705D" stroke-width=".9" stroke-linecap="round" stroke-linejoin="round"/></symbol></defs></svg>