<svg width="32" height="32" viewBox="0 0 32 32" fill="none" xmlns="http://www.w3.org/2000/svg"><path d="m7.2 13.6 3.6 1.5a40.6 40.6 0 0 1 2.7-4.6l-2.6-.5-3.7 3.6Zm5.2 2.7 4.4 4.5a26.2 26.2 0 0 0 6.3-4.1c1.8-1.8 3-3.7 4-5.6.8-1.9 1.2-4 1.3-6.4-2.4.1-4.5.6-6.4 1.4a18.8 18.8 0 0 0-7.7 6.7c-.7 1-1.4 2.3-2 3.5Zm7.6-3.2c-.4-.4-.7-1-.7-1.6 0-.7.3-1.2.7-1.7.4-.4 1-.6 1.6-.6.7 0 1.3.2 1.7.6.4.5.7 1 .7 1.7 0 .6-.3 1.2-.7 1.6-.4.5-1 .7-1.7.7-.6 0-1.2-.2-1.6-.7ZM19.5 26l3.6-3.6-.5-2.7a28.6 28.6 0 0 1-4.6 2.8l1.5 3.5ZM30.4 2.8c.2 3-.2 5.7-1.2 8.2-1 2.5-2.5 4.9-4.7 7v.1l-.1.1.7 3.7v1a2 2 0 0 1-.6.8l-5.7 5.7-2.8-6.6-5.7-5.7-6.6-2.8 5.8-5.7.8-.5h1l3.6.7h.1v-.1c2.3-2.2 4.6-3.8 7.1-4.8s5.2-1.3 8.3-1.1ZM6 21.2A4 4 0 0 1 8.8 20c1.1 0 2 .4 2.9 1.1.7.8 1.1 1.8 1.1 2.9a4 4 0 0 1-1.2 2.8c-.5.6-1.4 1-2.7 1.5-1.2.3-3 .7-5.4 1a39 39 0 0 1 1-5.4c.4-1.3.9-2.2 1.5-2.7Zm1.4 1.4c-.3.3-.6.9-.9 1.6L6 26.9l2.7-.6c.7-.3 1.3-.6 1.6-.9.4-.3.6-.8.7-1.4 0-.6-.2-1-.6-1.5a2 2 0 0 0-3 .1Z" fill="#7EB101"/></svg>